<svg width="126" height="66" viewBox="0 0 126 66" fill="none" xmlns="http://www.w3.org/2000/svg">
<path d="M7.55 33L2.24 10.68L7.46 10.5L10.43 26.04L13.55 10.68L17.78 10.5L12.38 33H7.55ZM20.0961 33V10.5H31.5261L31.1661 14.01H24.5061V19.38H29.2461L29.2161 23.16H24.5061V29.49H31.7661L31.4061 33H20.0961Z" fill="#3592FF"/>
<path d="M86.16 33.18V16.29L81.96 33H79.26L74.73 16.23V32.82L71.1 33V10.71L77.55 10.53L81.27 24.45L84.84 11.04L90.72 10.68V32.82L86.16 33.18ZM94.9184 33V10.5H106.348L105.988 14.01H99.3284V19.38H104.068L104.038 23.16H99.3284V29.49H106.588L106.228 33H94.9184ZM109.42 10.5H114.04C117 10.5 119.21 11.44 120.67 13.32C122.13 15.2 122.86 18.04 122.86 21.84C122.86 23.86 122.58 25.71 122.02 27.39C121.48 29.07 120.61 30.43 119.41 31.47C118.21 32.49 116.68 33 114.82 33H109.42V10.5ZM114.43 29.49C115.95 29.49 117 28.84 117.58 27.54C118.18 26.22 118.48 24.6 118.48 22.68V21.66C118.48 20.28 118.39 19.06 118.21 18C118.05 16.92 117.66 15.99 117.04 15.21C116.44 14.41 115.53 14.01 114.31 14.01H113.8V29.49H114.43Z" fill="#3592FF"/>
<path d="M37.3641 20.7373L24 21.1982L36.7189 21.7512L39.8525 27.9263L44.4608 17.3272L49.8064 42.3041L55.4286 11.8894L59.6682 29.0323L63.5392 21.7512L84 20.7373L61.8802 20.4608L60.3134 23.318L54.9677 0L49.3456 30.5991L45.3825 6.54378L39.8525 25.0691L37.3641 20.7373Z" fill="#3592FF"/>
<path d="M1.144 51.796H2.522L7.852 59.44H7.878V51.796H8.97V61H7.592L2.262 53.356H2.236V61H1.144V51.796ZM10.7292 57.958C10.7292 57.4813 10.8115 57.048 10.9762 56.658C11.1408 56.268 11.3662 55.9343 11.6522 55.657C11.9382 55.371 12.2805 55.15 12.6792 54.994C13.0778 54.838 13.5112 54.76 13.9792 54.76C14.4472 54.76 14.8805 54.838 15.2792 54.994C15.6778 55.15 16.0202 55.371 16.3062 55.657C16.5922 55.9343 16.8175 56.268 16.9822 56.658C17.1468 57.048 17.2292 57.4813 17.2292 57.958C17.2292 58.4347 17.1468 58.868 16.9822 59.258C16.8175 59.648 16.5922 59.986 16.3062 60.272C16.0202 60.5493 15.6778 60.766 15.2792 60.922C14.8805 61.078 14.4472 61.156 13.9792 61.156C13.5112 61.156 13.0778 61.078 12.6792 60.922C12.2805 60.766 11.9382 60.5493 11.6522 60.272C11.3662 59.986 11.1408 59.648 10.9762 59.258C10.8115 58.868 10.7292 58.4347 10.7292 57.958ZM11.8212 57.958C11.8212 58.2787 11.8688 58.5777 11.9642 58.855C12.0682 59.1237 12.2155 59.362 12.4062 59.57C12.5968 59.7693 12.8222 59.9297 13.0822 60.051C13.3508 60.1637 13.6498 60.22 13.9792 60.22C14.3085 60.22 14.6032 60.1637 14.8632 60.051C15.1318 59.9297 15.3615 59.7693 15.5522 59.57C15.7428 59.362 15.8858 59.1237 15.9812 58.855C16.0852 58.5777 16.1372 58.2787 16.1372 57.958C16.1372 57.6373 16.0852 57.3427 15.9812 57.074C15.8858 56.7967 15.7428 56.5583 15.5522 56.359C15.3615 56.151 15.1318 55.9907 14.8632 55.878C14.6032 55.7567 14.3085 55.696 13.9792 55.696C13.6498 55.696 13.3508 55.7567 13.0822 55.878C12.8222 55.9907 12.5968 56.151 12.4062 56.359C12.2155 56.5583 12.0682 56.7967 11.9642 57.074C11.8688 57.3427 11.8212 57.6373 11.8212 57.958ZM22.3651 54.916H23.3791V55.8H23.4051C23.6824 55.4707 24.0031 55.215 24.3671 55.033C24.7397 54.851 25.1471 54.76 25.5891 54.76C26.0657 54.76 26.4991 54.8423 26.8891 55.007C27.2877 55.163 27.6257 55.384 27.9031 55.67C28.1804 55.956 28.3971 56.294 28.5531 56.684C28.7091 57.074 28.7871 57.4987 28.7871 57.958C28.7871 58.4173 28.7091 58.842 28.5531 59.232C28.3971 59.622 28.1804 59.96 27.9031 60.246C27.6344 60.532 27.3137 60.7573 26.9411 60.922C26.5684 61.078 26.1697 61.156 25.7451 61.156C25.1991 61.156 24.7181 61.039 24.3021 60.805C23.8947 60.5623 23.5957 60.2677 23.4051 59.921H23.3791V63.964H22.3651V54.916ZM23.3791 57.958C23.3791 58.2787 23.4267 58.5777 23.5221 58.855C23.6261 59.1237 23.7734 59.362 23.9641 59.57C24.1547 59.7693 24.3801 59.9297 24.6401 60.051C24.9087 60.1637 25.2077 60.22 25.5371 60.22C25.8664 60.22 26.1611 60.1637 26.4211 60.051C26.6897 59.9297 26.9194 59.7693 27.1101 59.57C27.3007 59.362 27.4437 59.1237 27.5391 58.855C27.6431 58.5777 27.6951 58.2787 27.6951 57.958C27.6951 57.6373 27.6431 57.3427 27.5391 57.074C27.4437 56.7967 27.3007 56.5583 27.1101 56.359C26.9194 56.151 26.6897 55.9907 26.4211 55.878C26.1611 55.7567 25.8664 55.696 25.5371 55.696C25.2077 55.696 24.9087 55.7567 24.6401 55.878C24.3801 55.9907 24.1547 56.151 23.9641 56.359C23.7734 56.5583 23.6261 56.7967 23.5221 57.074C23.4267 57.3427 23.3791 57.6373 23.3791 57.958ZM30.2863 55.696C30.5983 55.3753 30.9667 55.1413 31.3913 54.994C31.8247 54.838 32.2623 54.76 32.7043 54.76C33.6057 54.76 34.2557 54.9723 34.6543 55.397C35.053 55.8217 35.2523 56.4673 35.2523 57.334V59.947C35.2523 60.1203 35.261 60.3023 35.2783 60.493C35.2957 60.675 35.3173 60.844 35.3433 61H34.3683C34.3337 60.8613 34.312 60.7097 34.3033 60.545C34.3033 60.3717 34.3033 60.22 34.3033 60.09H34.2773C34.078 60.402 33.8093 60.6577 33.4713 60.857C33.142 61.0563 32.7433 61.156 32.2753 61.156C31.9633 61.156 31.6687 61.117 31.3913 61.039C31.1227 60.961 30.8843 60.8483 30.6763 60.701C30.477 60.545 30.3167 60.3543 30.1953 60.129C30.074 59.9037 30.0133 59.6437 30.0133 59.349C30.0133 58.8463 30.1433 58.452 30.4033 58.166C30.6633 57.88 30.984 57.6677 31.3653 57.529C31.7553 57.3903 32.1713 57.3037 32.6133 57.269C33.064 57.2343 33.4757 57.217 33.8483 57.217H34.2383V57.035C34.2383 56.593 34.104 56.2593 33.8353 56.034C33.5753 55.8087 33.207 55.696 32.7303 55.696C32.401 55.696 32.076 55.7523 31.7553 55.865C31.4433 55.969 31.166 56.1337 30.9233 56.359L30.2863 55.696ZM33.2243 58.075C32.5743 58.075 32.0587 58.166 31.6773 58.348C31.296 58.53 31.1053 58.829 31.1053 59.245C31.1053 59.6263 31.231 59.8993 31.4823 60.064C31.7423 60.22 32.063 60.298 32.4443 60.298C32.739 60.298 32.9947 60.2503 33.2113 60.155C33.4367 60.051 33.623 59.9167 33.7703 59.752C33.9177 59.5873 34.0303 59.3967 34.1083 59.18C34.1863 58.9547 34.2297 58.7163 34.2383 58.465V58.075H33.2243ZM37.0536 54.916H38.0676V55.8H38.0936C38.3709 55.4707 38.6916 55.215 39.0556 55.033C39.4282 54.851 39.8356 54.76 40.2776 54.76C40.7542 54.76 41.1876 54.8423 41.5776 55.007C41.9762 55.163 42.3142 55.384 42.5916 55.67C42.8689 55.956 43.0856 56.294 43.2416 56.684C43.3976 57.074 43.4756 57.4987 43.4756 57.958C43.4756 58.4173 43.3976 58.842 43.2416 59.232C43.0856 59.622 42.8689 59.96 42.5916 60.246C42.3229 60.532 42.0022 60.7573 41.6296 60.922C41.2569 61.078 40.8582 61.156 40.4336 61.156C39.8876 61.156 39.4066 61.039 38.9906 60.805C38.5832 60.5623 38.2842 60.2677 38.0936 59.921H38.0676V63.964H37.0536V54.916ZM38.0676 57.958C38.0676 58.2787 38.1152 58.5777 38.2106 58.855C38.3146 59.1237 38.4619 59.362 38.6526 59.57C38.8432 59.7693 39.0686 59.9297 39.3286 60.051C39.5972 60.1637 39.8962 60.22 40.2256 60.22C40.5549 60.22 40.8496 60.1637 41.1096 60.051C41.3782 59.9297 41.6079 59.7693 41.7986 59.57C41.9892 59.362 42.1322 59.1237 42.2276 58.855C42.3316 58.5777 42.3836 58.2787 42.3836 57.958C42.3836 57.6373 42.3316 57.3427 42.2276 57.074C42.1322 56.7967 41.9892 56.5583 41.7986 56.359C41.6079 56.151 41.3782 55.9907 41.1096 55.878C40.8496 55.7567 40.5549 55.696 40.2256 55.696C39.8962 55.696 39.5972 55.7567 39.3286 55.878C39.0686 55.9907 38.8432 56.151 38.6526 56.359C38.4619 56.5583 38.3146 56.7967 38.2106 57.074C38.1152 57.3427 38.0676 57.6373 38.0676 57.958ZM50.4868 59.895C50.1228 60.363 49.7242 60.6923 49.2908 60.883C48.8575 61.065 48.3548 61.156 47.7828 61.156C47.3062 61.156 46.8772 61.0737 46.4958 60.909C46.1145 60.7357 45.7895 60.506 45.5208 60.22C45.2608 59.934 45.0572 59.596 44.9098 59.206C44.7712 58.816 44.7018 58.4 44.7018 57.958C44.7018 57.49 44.7798 57.061 44.9358 56.671C45.0918 56.2723 45.3085 55.9343 45.5858 55.657C45.8632 55.371 46.1925 55.15 46.5738 54.994C46.9552 54.838 47.3712 54.76 47.8218 54.76C48.2465 54.76 48.6365 54.8337 48.9918 54.981C49.3472 55.1197 49.6505 55.3277 49.9018 55.605C50.1618 55.8737 50.3612 56.2073 50.4998 56.606C50.6385 56.996 50.7078 57.4423 50.7078 57.945V58.27H45.7938C45.8112 58.53 45.8718 58.7813 45.9758 59.024C46.0885 59.258 46.2315 59.466 46.4048 59.648C46.5782 59.8213 46.7818 59.96 47.0158 60.064C47.2498 60.168 47.5055 60.22 47.7828 60.22C48.2248 60.22 48.5975 60.142 48.9008 59.986C49.2042 59.83 49.4772 59.6003 49.7198 59.297L50.4868 59.895ZM49.6158 57.412C49.5985 56.892 49.4295 56.476 49.1088 56.164C48.7882 55.852 48.3462 55.696 47.7828 55.696C47.2195 55.696 46.7645 55.852 46.4178 56.164C46.0712 56.476 45.8632 56.892 45.7938 57.412H49.6158ZM52.2765 56.359C52.2765 56.0817 52.2678 55.8217 52.2505 55.579C52.2331 55.3363 52.2245 55.1153 52.2245 54.916H53.1865C53.1865 55.0807 53.1908 55.2453 53.1995 55.41C53.2081 55.5747 53.2125 55.7437 53.2125 55.917H53.2385C53.3078 55.7697 53.4031 55.6267 53.5245 55.488C53.6545 55.3493 53.8061 55.228 53.9795 55.124C54.1528 55.0113 54.3478 54.9247 54.5645 54.864C54.7811 54.7947 55.0151 54.76 55.2665 54.76C55.3358 54.76 55.4051 54.7643 55.4745 54.773C55.5438 54.7817 55.6131 54.799 55.6825 54.825L55.6175 55.852C55.4441 55.8 55.2621 55.774 55.0715 55.774C54.4475 55.774 53.9925 55.9777 53.7065 56.385C53.4291 56.7837 53.2905 57.334 53.2905 58.036V61H52.2765V56.359ZM56.3684 62.794H55.3674L56.2514 59.674H57.4344L56.3684 62.794Z" fill="black" fill-opacity="0.6"/>
<path d="M62.8897 56.359C62.8897 56.0817 62.8811 55.8217 62.8637 55.579C62.8464 55.3363 62.8377 55.1153 62.8377 54.916H63.7997C63.7997 55.0807 63.8041 55.2453 63.8127 55.41C63.8214 55.5747 63.8257 55.7437 63.8257 55.917H63.8517C63.9211 55.7697 64.0164 55.6267 64.1377 55.488C64.2677 55.3493 64.4194 55.228 64.5927 55.124C64.7661 55.0113 64.9611 54.9247 65.1777 54.864C65.3944 54.7947 65.6284 54.76 65.8797 54.76C66.2784 54.76 66.6207 54.8207 66.9067 54.942C67.2014 55.0633 67.4441 55.2323 67.6347 55.449C67.8254 55.6657 67.9641 55.93 68.0507 56.242C68.1461 56.5453 68.1937 56.879 68.1937 57.243V61H67.1797V57.347C67.1797 56.8357 67.0671 56.4327 66.8417 56.138C66.6164 55.8433 66.2654 55.696 65.7887 55.696C65.4594 55.696 65.1734 55.7523 64.9307 55.865C64.6967 55.9777 64.5017 56.138 64.3457 56.346C64.1984 56.554 64.0857 56.801 64.0077 57.087C63.9384 57.373 63.9037 57.6893 63.9037 58.036V61H62.8897V56.359ZM69.7624 57.958C69.7624 57.4813 69.8447 57.048 70.0094 56.658C70.174 56.268 70.3994 55.9343 70.6854 55.657C70.9714 55.371 71.3137 55.15 71.7124 54.994C72.111 54.838 72.5444 54.76 73.0124 54.76C73.4804 54.76 73.9137 54.838 74.3124 54.994C74.711 55.15 75.0534 55.371 75.3394 55.657C75.6254 55.9343 75.8507 56.268 76.0154 56.658C76.18 57.048 76.2624 57.4813 76.2624 57.958C76.2624 58.4347 76.18 58.868 76.0154 59.258C75.8507 59.648 75.6254 59.986 75.3394 60.272C75.0534 60.5493 74.711 60.766 74.3124 60.922C73.9137 61.078 73.4804 61.156 73.0124 61.156C72.5444 61.156 72.111 61.078 71.7124 60.922C71.3137 60.766 70.9714 60.5493 70.6854 60.272C70.3994 59.986 70.174 59.648 70.0094 59.258C69.8447 58.868 69.7624 58.4347 69.7624 57.958ZM70.8544 57.958C70.8544 58.2787 70.902 58.5777 70.9974 58.855C71.1014 59.1237 71.2487 59.362 71.4394 59.57C71.63 59.7693 71.8554 59.9297 72.1154 60.051C72.384 60.1637 72.683 60.22 73.0124 60.22C73.3417 60.22 73.6364 60.1637 73.8964 60.051C74.165 59.9297 74.3947 59.7693 74.5854 59.57C74.776 59.362 74.919 59.1237 75.0144 58.855C75.1184 58.5777 75.1704 58.2787 75.1704 57.958C75.1704 57.6373 75.1184 57.3427 75.0144 57.074C74.919 56.7967 74.776 56.5583 74.5854 56.359C74.3947 56.151 74.165 55.9907 73.8964 55.878C73.6364 55.7567 73.3417 55.696 73.0124 55.696C72.683 55.696 72.384 55.7567 72.1154 55.878C71.8554 55.9907 71.63 56.151 71.4394 56.359C71.2487 56.5583 71.1014 56.7967 70.9974 57.074C70.902 57.3427 70.8544 57.6373 70.8544 57.958ZM86.5073 59.921H86.4813C86.2906 60.2677 85.9873 60.5623 85.5713 60.805C85.1639 61.039 84.6873 61.156 84.1413 61.156C83.7166 61.156 83.3179 61.078 82.9453 60.922C82.5726 60.7573 82.2476 60.532 81.9703 60.246C81.7016 59.96 81.4893 59.622 81.3333 59.232C81.1773 58.842 81.0993 58.4173 81.0993 57.958C81.0993 57.4987 81.1773 57.074 81.3333 56.684C81.4893 56.294 81.7059 55.956 81.9833 55.67C82.2606 55.384 82.5943 55.163 82.9843 55.007C83.3829 54.8423 83.8206 54.76 84.2973 54.76C84.7393 54.76 85.1423 54.851 85.5063 55.033C85.8789 55.215 86.2039 55.4707 86.4813 55.8H86.5073V51.172H87.5213V61H86.5073V59.921ZM86.5073 57.958C86.5073 57.6373 86.4553 57.3427 86.3513 57.074C86.2559 56.7967 86.1129 56.5583 85.9223 56.359C85.7316 56.151 85.5019 55.9907 85.2333 55.878C84.9733 55.7567 84.6786 55.696 84.3493 55.696C84.0199 55.696 83.7209 55.7567 83.4523 55.878C83.1923 55.9907 82.9669 56.151 82.7763 56.359C82.5856 56.5583 82.4383 56.7967 82.3343 57.074C82.2389 57.3427 82.1913 57.6373 82.1913 57.958C82.1913 58.2787 82.2389 58.5777 82.3343 58.855C82.4383 59.1237 82.5856 59.362 82.7763 59.57C82.9669 59.7693 83.1923 59.9297 83.4523 60.051C83.7209 60.1637 84.0199 60.22 84.3493 60.22C84.6786 60.22 84.9733 60.1637 85.2333 60.051C85.5019 59.9297 85.7316 59.7693 85.9223 59.57C86.1129 59.362 86.2559 59.1237 86.3513 58.855C86.4553 58.5777 86.5073 58.2787 86.5073 57.958ZM89.0465 57.958C89.0465 57.4813 89.1289 57.048 89.2935 56.658C89.4582 56.268 89.6835 55.9343 89.9695 55.657C90.2555 55.371 90.5979 55.15 90.9965 54.994C91.3952 54.838 91.8285 54.76 92.2965 54.76C92.7645 54.76 93.1979 54.838 93.5965 54.994C93.9952 55.15 94.3375 55.371 94.6235 55.657C94.9095 55.9343 95.1349 56.268 95.2995 56.658C95.4642 57.048 95.5465 57.4813 95.5465 57.958C95.5465 58.4347 95.4642 58.868 95.2995 59.258C95.1349 59.648 94.9095 59.986 94.6235 60.272C94.3375 60.5493 93.9952 60.766 93.5965 60.922C93.1979 61.078 92.7645 61.156 92.2965 61.156C91.8285 61.156 91.3952 61.078 90.9965 60.922C90.5979 60.766 90.2555 60.5493 89.9695 60.272C89.6835 59.986 89.4582 59.648 89.2935 59.258C89.1289 58.868 89.0465 58.4347 89.0465 57.958ZM90.1385 57.958C90.1385 58.2787 90.1862 58.5777 90.2815 58.855C90.3855 59.1237 90.5329 59.362 90.7235 59.57C90.9142 59.7693 91.1395 59.9297 91.3995 60.051C91.6682 60.1637 91.9672 60.22 92.2965 60.22C92.6259 60.22 92.9205 60.1637 93.1805 60.051C93.4492 59.9297 93.6789 59.7693 93.8695 59.57C94.0602 59.362 94.2032 59.1237 94.2985 58.855C94.4025 58.5777 94.4545 58.2787 94.4545 57.958C94.4545 57.6373 94.4025 57.3427 94.2985 57.074C94.2032 56.7967 94.0602 56.5583 93.8695 56.359C93.6789 56.151 93.4492 55.9907 93.1805 55.878C92.9205 55.7567 92.6259 55.696 92.2965 55.696C91.9672 55.696 91.6682 55.7567 91.3995 55.878C91.1395 55.9907 90.9142 56.151 90.7235 56.359C90.5329 56.5583 90.3855 56.7967 90.2815 57.074C90.1862 57.3427 90.1385 57.6373 90.1385 57.958ZM102.42 59.557C102.42 59.8343 102.429 60.0943 102.446 60.337C102.464 60.5797 102.472 60.8007 102.472 61H101.51C101.51 60.8353 101.506 60.6707 101.497 60.506C101.489 60.3413 101.484 60.1723 101.484 59.999H101.458C101.389 60.1463 101.289 60.2893 101.159 60.428C101.038 60.5667 100.891 60.6923 100.717 60.805C100.544 60.909 100.349 60.9913 100.132 61.052C99.9156 61.1213 99.6816 61.156 99.4303 61.156C99.0316 61.156 98.685 61.0953 98.3903 60.974C98.1043 60.8527 97.866 60.6837 97.6753 60.467C97.4846 60.2503 97.3416 59.9903 97.2463 59.687C97.1596 59.375 97.1163 59.037 97.1163 58.673V54.916H98.1303V58.569C98.1303 59.0803 98.243 59.4833 98.4683 59.778C98.6936 60.0727 99.0446 60.22 99.5213 60.22C99.8506 60.22 100.132 60.1637 100.366 60.051C100.609 59.9383 100.804 59.778 100.951 59.57C101.107 59.362 101.22 59.115 101.289 58.829C101.367 58.543 101.406 58.2267 101.406 57.88V54.916H102.42V59.557ZM104.288 51.172H105.302V55.8H105.328C105.605 55.4707 105.926 55.215 106.29 55.033C106.663 54.851 107.07 54.76 107.512 54.76C107.989 54.76 108.422 54.8423 108.812 55.007C109.211 55.163 109.549 55.384 109.826 55.67C110.103 55.956 110.32 56.294 110.476 56.684C110.632 57.074 110.71 57.4987 110.71 57.958C110.71 58.4173 110.632 58.842 110.476 59.232C110.32 59.622 110.103 59.96 109.826 60.246C109.557 60.532 109.237 60.7573 108.864 60.922C108.491 61.078 108.093 61.156 107.668 61.156C107.122 61.156 106.641 61.039 106.225 60.805C105.818 60.5623 105.519 60.2677 105.328 59.921H105.302V61H104.288V51.172ZM105.302 57.958C105.302 58.2787 105.35 58.5777 105.445 58.855C105.549 59.1237 105.696 59.362 105.887 59.57C106.078 59.7693 106.303 59.9297 106.563 60.051C106.832 60.1637 107.131 60.22 107.46 60.22C107.789 60.22 108.084 60.1637 108.344 60.051C108.613 59.9297 108.842 59.7693 109.033 59.57C109.224 59.362 109.367 59.1237 109.462 58.855C109.566 58.5777 109.618 58.2787 109.618 57.958C109.618 57.6373 109.566 57.3427 109.462 57.074C109.367 56.7967 109.224 56.5583 109.033 56.359C108.842 56.151 108.613 55.9907 108.344 55.878C108.084 55.7567 107.789 55.696 107.46 55.696C107.131 55.696 106.832 55.7567 106.563 55.878C106.303 55.9907 106.078 56.151 105.887 56.359C105.696 56.5583 105.549 56.7967 105.445 57.074C105.35 57.3427 105.302 57.6373 105.302 57.958ZM115.615 55.774H113.821V58.816C113.821 59.0153 113.826 59.2017 113.834 59.375C113.843 59.5397 113.878 59.687 113.938 59.817C113.999 59.9383 114.09 60.038 114.211 60.116C114.333 60.1853 114.506 60.22 114.731 60.22C114.879 60.22 115.03 60.2027 115.186 60.168C115.342 60.1333 115.49 60.0813 115.628 60.012L115.667 60.935C115.494 61.013 115.299 61.0693 115.082 61.104C114.874 61.1387 114.675 61.156 114.484 61.156C114.12 61.156 113.83 61.1083 113.613 61.013C113.397 60.9177 113.228 60.7833 113.106 60.61C112.985 60.4367 112.903 60.2243 112.859 59.973C112.825 59.713 112.807 59.427 112.807 59.115V55.774H111.481V54.916H112.807V53.187H113.821V54.916H115.615V55.774ZM116.988 59.401C117.187 59.6523 117.404 59.8517 117.638 59.999C117.88 60.1463 118.184 60.22 118.548 60.22C118.704 60.22 118.86 60.2027 119.016 60.168C119.18 60.1333 119.328 60.077 119.458 59.999C119.588 59.921 119.692 59.8257 119.77 59.713C119.848 59.5917 119.887 59.4487 119.887 59.284C119.887 59.1193 119.848 58.985 119.77 58.881C119.7 58.777 119.605 58.6903 119.484 58.621C119.362 58.543 119.224 58.4823 119.068 58.439C118.912 58.3957 118.751 58.3567 118.587 58.322C118.301 58.2613 118.028 58.192 117.768 58.114C117.508 58.036 117.278 57.9363 117.079 57.815C116.888 57.685 116.732 57.5203 116.611 57.321C116.498 57.1217 116.442 56.866 116.442 56.554C116.442 56.2593 116.507 55.9993 116.637 55.774C116.767 55.5487 116.94 55.3623 117.157 55.215C117.373 55.0677 117.616 54.955 117.885 54.877C118.153 54.799 118.431 54.76 118.717 54.76C119.15 54.76 119.549 54.8467 119.913 55.02C120.285 55.1933 120.576 55.475 120.784 55.865L119.939 56.424C119.809 56.2073 119.635 56.034 119.419 55.904C119.211 55.7653 118.955 55.696 118.652 55.696C118.513 55.696 118.37 55.7133 118.223 55.748C118.084 55.7827 117.958 55.8347 117.846 55.904C117.733 55.9733 117.638 56.0643 117.56 56.177C117.49 56.281 117.456 56.4023 117.456 56.541C117.456 56.671 117.495 56.7837 117.573 56.879C117.659 56.9657 117.772 57.0437 117.911 57.113C118.058 57.1823 118.223 57.243 118.405 57.295C118.595 57.347 118.79 57.3903 118.99 57.425C119.258 57.477 119.514 57.5463 119.757 57.633C119.999 57.711 120.212 57.8193 120.394 57.958C120.576 58.0967 120.719 58.27 120.823 58.478C120.927 58.686 120.979 58.9417 120.979 59.245C120.979 59.5917 120.909 59.8863 120.771 60.129C120.632 60.3717 120.446 60.571 120.212 60.727C119.986 60.8743 119.726 60.9827 119.432 61.052C119.146 61.1213 118.851 61.156 118.548 61.156C118.028 61.156 117.577 61.078 117.196 60.922C116.823 60.7573 116.485 60.4583 116.182 60.025L116.988 59.401ZM123.238 59.518C123.454 59.518 123.636 59.596 123.784 59.752C123.94 59.8993 124.018 60.0813 124.018 60.298C124.018 60.5147 123.935 60.701 123.771 60.857C123.615 61.0043 123.437 61.078 123.238 61.078C123.038 61.078 122.856 61.0043 122.692 60.857C122.536 60.701 122.458 60.5147 122.458 60.298C122.458 60.0813 122.531 59.8993 122.679 59.752C122.835 59.596 123.021 59.518 123.238 59.518Z" fill="#2B72F6"/>
</svg>
